<svg xmlns="http://www.w3.org/2000/svg" xmlns:xlink="http://www.w3.org/1999/xlink" viewBox="0 0 487.41 467.28"><defs><style>.cls-1{fill:url(#linear-gradient);}.cls-2{fill:#38c3f4;}.cls-3{fill:#f9ae03;}.cls-4{fill:#e0e0e0;}.cls-5{fill:#0da4e3;}.cls-6{fill:url(#linear-gradient-2);}.cls-7{fill:url(#linear-gradient-3);}.cls-8{fill:#fff;}.cls-9{fill:url(#linear-gradient-4);}.cls-10{fill:#263238;}.cls-11{fill:url(#linear-gradient-5);}.cls-12{fill:url(#linear-gradient-6);}.cls-13{fill:url(#linear-gradient-7);}.cls-14{fill:url(#linear-gradient-8);}.cls-15{fill:url(#linear-gradient-9);}.cls-16{fill:url(#linear-gradient-10);}.cls-17{fill:url(#linear-gradient-11);}.cls-18{fill:url(#linear-gradient-12);}.cls-19{fill:url(#linear-gradient-13);}.cls-20{opacity:0.3;isolation:isolate;}.cls-21{fill:#ffbf9d;}.cls-22{fill:#455a64;}.cls-23{fill:#ff9a6c;}.cls-24{fill:#ebebeb;}</style><linearGradient id="linear-gradient" x1="1.83" y1="374.04" x2="487.41" y2="374.04" gradientUnits="userSpaceOnUse"><stop offset="0" stop-color="#fff"></stop><stop offset="1" stop-color="#d1f1fc"></stop></linearGradient><linearGradient id="linear-gradient-2" x1="378.85" y1="90.87" x2="451.21" y2="90.87" gradientTransform="translate(64.22 -148.8) rotate(21.99)" gradientUnits="userSpaceOnUse"><stop offset="0" stop-color="#38c3f4"></stop><stop offset="1" stop-color="#fff"></stop></linearGradient><linearGradient id="linear-gradient-3" x1="378.86" y1="86.88" x2="451.22" y2="86.88" gradientTransform="translate(62.72 -149.09) rotate(21.99)" gradientUnits="userSpaceOnUse"><stop offset="0" stop-color="#fff"></stop><stop offset="1" stop-color="#38c3f4"></stop></linearGradient><linearGradient id="linear-gradient-4" x1="403.17" y1="86.89" x2="426.89" y2="86.89" gradientTransform="translate(202.66 -280.13) rotate(48.12)" xlink:href="#linear-gradient-2"></linearGradient><linearGradient id="linear-gradient-5" x1="240.1" y1="44.51" x2="319.28" y2="44.51" gradientTransform="matrix(1, 0, 0, 1, 0, 0)" xlink:href="#linear-gradient-2"></linearGradient><linearGradient id="linear-gradient-6" x1="23.58" y1="69.01" x2="98.2" y2="69.01" gradientTransform="matrix(1, 0, 0, 1, 0, 0)" xlink:href="#linear-gradient-3"></linearGradient><linearGradient id="linear-gradient-7" x1="123.96" y1="18.48" x2="182.6" y2="18.48" gradientTransform="matrix(1, 0, 0, 1, 0, 0)" xlink:href="#linear-gradient-2"></linearGradient><linearGradient id="linear-gradient-8" x1="47.81" y1="138.13" x2="106.48" y2="138.13" gradientTransform="matrix(1, 0, 0, 1, 0, 0)" xlink:href="#linear-gradient-3"></linearGradient><linearGradient id="linear-gradient-9" x1="342.14" y1="7.29" x2="400.85" y2="7.29" gradientTransform="matrix(1, 0, 0, 1, 0, 0)" xlink:href="#linear-gradient-2"></linearGradient><linearGradient id="linear-gradient-10" x1="283.08" y1="102.11" x2="341.72" y2="102.11" gradientTransform="matrix(1, 0, 0, 1, 0, 0)" xlink:href="#linear-gradient-3"></linearGradient><linearGradient id="linear-gradient-11" x1="319.34" y1="80.58" x2="394.84" y2="80.58" gradientTransform="matrix(1, 0, 0, 1, 0, 0)" xlink:href="#linear-gradient-3"></linearGradient><linearGradient id="linear-gradient-12" x1="83.87" y1="202.58" x2="146.13" y2="202.58" gradientTransform="matrix(1, 0, 0, 1, 0, 0)" xlink:href="#linear-gradient-3"></linearGradient><linearGradient id="linear-gradient-13" x1="64.22" y1="374.3" x2="257.16" y2="374.3" gradientTransform="matrix(1, 0, 0, 1, 0, 0)" xlink:href="#linear-gradient-3"></linearGradient></defs><title>Job &amp;amp; Training Placement_1</title><g id="Layer_2" data-name="Layer 2"><g id="Layer_1-2" data-name="Layer 1"><polygon class="cls-1" points="1.83 466.38 486.58 461.58 487.41 281.69 1.83 466.38"></polygon><g id="freepik--background-complete--inject-110"><path class="cls-2" d="M351.39,400.58a7.82,7.82,0,0,1,5.1,3.35,13.92,13.92,0,0,1,2.15,5.85c.61,4-.53,8.53-2.06,12.28-4.05-2-6.16-6.74-7.07-9.23-1.45-3.94-1.68-11.93,1.88-12.25"></path><path class="cls-2" d="M362.13,427.39a6.67,6.67,0,0,1,.41-6.67A8.89,8.89,0,0,1,368.3,417a3.73,3.73,0,0,1,3.1.49,2.83,2.83,0,0,1,.8,2.77,5.67,5.67,0,0,1-1.51,2.59c-2.35,2.55-5.09,4.59-8.56,4.5"></path><path class="cls-2" d="M361.18,440.45a4.59,4.59,0,0,1-.1-.83c-.05-.59-.12-1.35-.2-2.27a23.63,23.63,0,0,1,.36-7.5,14.22,14.22,0,0,1,3.51-6.6,9.51,9.51,0,0,1,1.78-1.44c.17-.11.35-.21.54-.31s.19-.09.2-.08a13.2,13.2,0,0,0-5.75,8.5,25.32,25.32,0,0,0-.43,7.42c.05,1,.09,1.73.1,2.27A4.7,4.7,0,0,1,361.18,440.45Z"></path><path class="cls-2" d="M352.1,406.58a1.58,1.58,0,0,1,.13.34l.34,1c.28.86.67,2.1,1.15,3.65.94,3.08,2.19,7.36,3.47,12.12s2.32,9.1,3,12.25c.36,1.57.64,2.85.83,3.73.08.42.15.76.2,1a2.23,2.23,0,0,1,0,.36,3.58,3.58,0,0,1-.11-.35c-.06-.26-.15-.59-.25-1-.23-.91-.54-2.17-.92-3.71-.77-3.13-1.85-7.45-3.13-12.21s-2.49-9-3.38-12.14l-1.06-3.68c-.12-.41-.21-.74-.28-1A2,2,0,0,1,352.1,406.58Z"></path><path class="cls-2" d="M357.11,431.3a15.6,15.6,0,0,0-11.2-8.78c-1.23-.23-2.75-.18-3.43.88s-.08,2.46.67,3.48a13.27,13.27,0,0,0,14,4.76"></path><path class="cls-2" d="M347.45,426.06a4.94,4.94,0,0,1,.77.12c.3.05.6.12.9.2s.75.19,1.17.35.9.32,1.38.55a16.56,16.56,0,0,1,1.51.78,17.42,17.42,0,0,1,3.12,2.34,16.45,16.45,0,0,1,2.46,3,14.4,14.4,0,0,1,.82,1.49,12.34,12.34,0,0,1,.58,1.36c.15.39.27.78.38,1.17a7.17,7.17,0,0,1,.21.89,3.51,3.51,0,0,1,.12.78c-.06,0-.24-1.1-.9-2.76a11.36,11.36,0,0,0-.61-1.33,14,14,0,0,0-.83-1.46,17.93,17.93,0,0,0-2.43-3,19.17,19.17,0,0,0-3.05-2.32c-.52-.29-1-.57-1.49-.79s-.93-.4-1.34-.57C348.54,426.3,347.43,426.12,347.45,426.06Z"></path><path class="cls-2" d="M420.8,364a90.74,90.74,0,0,1-6.6-7.12,90.58,90.58,0,0,1-6.21-7.46A182.72,182.72,0,0,1,420.8,364Z"></path><path class="cls-2" d="M424.83,363.89a73.19,73.19,0,0,1-3.93-8,76.39,76.39,0,0,1-3.45-8.25,76.89,76.89,0,0,1,3.92,8A78.18,78.18,0,0,1,424.83,363.89Z"></path><path class="cls-2" d="M430.18,348.38c.16,0-.88,3.32-1.37,7.51s-.29,7.61-.45,7.62a7.65,7.65,0,0,1-.28-2.24,33.13,33.13,0,0,1,.21-5.45,33.6,33.6,0,0,1,1.09-5.33A8.19,8.19,0,0,1,430.18,348.38Z"></path><path class="cls-2" d="M248.57,451.86a13.07,13.07,0,0,1-1.94-1.85c-1.28-1.31-2.81-2.88-4.49-4.62l-4.5-4.62a15.49,15.49,0,0,1-1.79-2,13.6,13.6,0,0,1,2.05,1.73c1.21,1.12,2.85,2.71,4.61,4.52s3.3,3.49,4.39,4.73A14.75,14.75,0,0,1,248.57,451.86Z"></path><path class="cls-2" d="M255.25,452.19A180.47,180.47,0,0,1,245,435.91a94.4,94.4,0,0,1,5.35,8A89.57,89.57,0,0,1,255.25,452.19Z"></path><path class="cls-2" d="M262.52,435.29a18.61,18.61,0,0,1-.7,2.56,46.49,46.49,0,0,0-1.8,12.56,18,18,0,0,1,0,2.65,10.23,10.23,0,0,1-.32-2.65,34.53,34.53,0,0,1,1.82-12.67A10.18,10.18,0,0,1,262.52,435.29Z"></path><circle class="cls-2" cx="415.03" cy="90.87" r="36.17" transform="translate(-3.83 162.02) rotate(-21.99)"></circle><circle class="cls-2" cx="415.04" cy="86.88" r="36.17" transform="translate(-2.34 161.73) rotate(-21.99)"></circle><circle class="cls-2" cx="415.04" cy="86.9" r="24.23"></circle><circle class="cls-2" cx="415.03" cy="86.89" r="11.86" transform="translate(73.28 337.89) rotate(-48.12)"></circle><polygon class="cls-2" points="444.13 56.27 443.14 48.55 451 40.15 451.56 48.48 444.13 56.27"></polygon><polygon class="cls-2" points="460.99 50.13 453.02 49.48 445.03 57.16 453.02 58.02 460.99 50.13"></polygon><path class="cls-2" d="M452.28,46.41,439.6,59.26l-20.13,20.4c-1.55,1.56-3.09,3.13-4.63,4.69a1.62,1.62,0,0,0,2.29,2.29l12.69-12.86L450,53.39q2.31-2.36,4.63-4.69c1.46-1.49-.83-3.78-2.3-2.29Z"></path><path class="cls-2" d="M319.24,53.58c.6-4.39-5.6-8-10.26-8.39-2.23-.17-4.54.17-6.64-.57C297.77,43,296,37.14,291.5,35.26c-3.33-1.41-7.16-.16-10.39,1.47s-6.42,3.67-10,3.9c-3.14.2-6.55-1-9.29.57-2,1.14-3.12,3.49-5,4.88s-4.25,1.65-6.54,1.78-4.65.14-6.74,1.1-3.8,3.15-3.37,5.4Z"></path><path class="cls-2" d="M98.16,77.58c.57-4.15-5.27-7.55-9.67-7.91-2.09-.17-4.27.15-6.25-.54-4.3-1.5-6-7-10.22-8.82-3.13-1.32-6.74-.15-9.78,1.38s-6,3.46-9.45,3.68c-3,.19-6.16-.91-8.75.53-1.92,1.08-2.93,3.3-4.71,4.61s-4,1.55-6.16,1.67a18.25,18.25,0,0,0-6.35,1c-2,.86-3.58,3-3.18,5.09Z"></path><path class="cls-2" d="M182.57,25.19c.45-3.26-4.15-5.93-7.6-6.21-1.65-.14-3.36.12-4.92-.43-3.38-1.18-4.73-5.54-8-6.93-2.46-1-5.3-.12-7.69,1.09s-4.75,2.71-7.42,2.88c-2.33.15-4.85-.71-6.88.43-1.52.84-2.31,2.59-3.71,3.62A8.78,8.78,0,0,1,131.51,21a14,14,0,0,0-5,.81c-1.54.71-2.82,2.34-2.5,4Z"></path><path class="cls-2" d="M106.45,144.86c.45-3.25-4.15-5.93-7.6-6.21-1.65-.13-3.36.12-4.92-.42-3.38-1.18-4.73-5.55-8-6.94-2.46-1-5.3-.11-7.69,1.09s-4.76,2.72-7.43,2.89c-2.32.15-4.84-.72-6.87.42-1.52.84-2.31,2.59-3.71,3.62a8.62,8.62,0,0,1-4.87,1.27,13.74,13.74,0,0,0-5,.82c-1.54.7-2.82,2.34-2.5,4Z"></path><path class="cls-2" d="M400.82,14c.45-3.26-4.15-5.94-7.6-6.21-1.65-.14-3.36.11-4.92-.43-3.38-1.18-4.73-5.54-8-6.93-2.46-1-5.3-.12-7.69,1.08s-4.75,2.72-7.42,2.89c-2.33.15-4.85-.71-6.88.42-1.52.85-2.31,2.59-3.71,3.62a8.77,8.77,0,0,1-4.91,1.32,14,14,0,0,0-5,.81c-1.54.71-2.82,2.34-2.5,4Z"></path><path class="cls-2" d="M341.69,108.82c.45-3.26-4.15-5.93-7.6-6.21-1.65-.13-3.36.12-4.92-.43-3.38-1.17-4.73-5.54-8-6.93-2.47-1-5.31-.12-7.7,1.09s-4.75,2.71-7.42,2.88c-2.33.15-4.85-.71-6.88.43-1.51.84-2.31,2.59-3.7,3.62a8.78,8.78,0,0,1-4.84,1.31,14,14,0,0,0-5,.81c-1.54.71-2.82,2.34-2.5,4Z"></path><polygon class="cls-2" points="123.94 196.51 169.89 149.01 182.77 153.38 227.82 228.97 254.47 242.6 277.27 308.89 207.29 305.27 123.94 196.51"></polygon><path class="cls-3" d="M351.39,400.58a7.82,7.82,0,0,1,5.1,3.35,13.92,13.92,0,0,1,2.15,5.85c.61,4-.53,8.53-2.06,12.28-4.05-2-6.16-6.74-7.07-9.23-1.45-3.94-1.68-11.93,1.88-12.25"></path><path class="cls-3" d="M362.13,427.39a6.67,6.67,0,0,1,.41-6.67A8.89,8.89,0,0,1,368.3,417a3.73,3.73,0,0,1,3.1.49,2.83,2.83,0,0,1,.8,2.77,5.67,5.67,0,0,1-1.51,2.59c-2.35,2.55-5.09,4.59-8.56,4.5"></path><path class="cls-4" d="M361.18,440.45a4.59,4.59,0,0,1-.1-.83c-.05-.59-.12-1.35-.2-2.27a23.63,23.63,0,0,1,.36-7.5,14.22,14.22,0,0,1,3.51-6.6,9.51,9.51,0,0,1,1.78-1.44c.17-.11.35-.21.54-.31s.19-.09.2-.08a13.2,13.2,0,0,0-5.75,8.5,25.32,25.32,0,0,0-.43,7.42c.05,1,.09,1.73.1,2.27A4.7,4.7,0,0,1,361.18,440.45Z"></path><path class="cls-4" d="M352.1,406.58a1.58,1.58,0,0,1,.13.34l.34,1c.28.86.67,2.1,1.15,3.65.94,3.08,2.19,7.36,3.47,12.12s2.32,9.1,3,12.25c.36,1.57.64,2.85.83,3.73.08.42.15.76.2,1a2.23,2.23,0,0,1,0,.36,3.58,3.58,0,0,1-.11-.35c-.06-.26-.15-.59-.25-1-.23-.91-.54-2.17-.92-3.71-.77-3.13-1.85-7.45-3.13-12.21s-2.49-9-3.38-12.14l-1.06-3.68c-.12-.41-.21-.74-.28-1A2,2,0,0,1,352.1,406.58Z"></path><path class="cls-3" d="M357.11,431.3a15.6,15.6,0,0,0-11.2-8.78c-1.23-.23-2.75-.18-3.43.88s-.08,2.46.67,3.48a13.27,13.27,0,0,0,14,4.76"></path><path class="cls-4" d="M347.45,426.06a4.94,4.94,0,0,1,.77.12c.3.05.6.12.9.2s.75.19,1.17.35.9.32,1.38.55a16.56,16.56,0,0,1,1.51.78,17.42,17.42,0,0,1,3.12,2.34,16.45,16.45,0,0,1,2.46,3,14.4,14.4,0,0,1,.82,1.49,12.34,12.34,0,0,1,.58,1.36c.15.39.27.78.38,1.17a7.17,7.17,0,0,1,.21.89,3.51,3.51,0,0,1,.12.78c-.06,0-.24-1.1-.9-2.76a11.36,11.36,0,0,0-.61-1.33,14,14,0,0,0-.83-1.46,17.93,17.93,0,0,0-2.43-3,19.17,19.17,0,0,0-3.05-2.32c-.52-.29-1-.57-1.49-.79s-.93-.4-1.34-.57C348.54,426.3,347.43,426.12,347.45,426.06Z"></path><path class="cls-5" d="M420.8,364a90.74,90.74,0,0,1-6.6-7.12,90.58,90.58,0,0,1-6.21-7.46A182.72,182.72,0,0,1,420.8,364Z"></path><path class="cls-5" d="M424.83,363.89a73.19,73.19,0,0,1-3.93-8,76.39,76.39,0,0,1-3.45-8.25,76.89,76.89,0,0,1,3.92,8A78.18,78.18,0,0,1,424.83,363.89Z"></path><path class="cls-5" d="M430.18,348.38c.16,0-.88,3.32-1.37,7.51s-.29,7.61-.45,7.62a7.65,7.65,0,0,1-.28-2.24,33.13,33.13,0,0,1,.21-5.45,33.6,33.6,0,0,1,1.09-5.33A8.19,8.19,0,0,1,430.18,348.38Z"></path><path class="cls-5" d="M248.57,451.86a13.07,13.07,0,0,1-1.94-1.85c-1.28-1.31-2.81-2.88-4.49-4.62l-4.5-4.62a15.49,15.49,0,0,1-1.79-2,13.6,13.6,0,0,1,2.05,1.73c1.21,1.12,2.85,2.71,4.61,4.52s3.3,3.49,4.39,4.73A14.75,14.75,0,0,1,248.57,451.86Z"></path><path class="cls-5" d="M255.25,452.19A180.47,180.47,0,0,1,245,435.91a94.4,94.4,0,0,1,5.35,8A89.57,89.57,0,0,1,255.25,452.19Z"></path><path class="cls-5" d="M262.52,435.29a18.61,18.61,0,0,1-.7,2.56,46.49,46.49,0,0,0-1.8,12.56,18,18,0,0,1,0,2.65,10.23,10.23,0,0,1-.32-2.65,34.53,34.53,0,0,1,1.82-12.67A10.18,10.18,0,0,1,262.52,435.29Z"></path><circle class="cls-6" cx="415.03" cy="90.87" r="36.17" transform="translate(-3.83 162.02) rotate(-21.99)"></circle><circle class="cls-7" cx="415.04" cy="86.88" r="36.17" transform="translate(-2.34 161.73) rotate(-21.99)"></circle><circle class="cls-8" cx="415.04" cy="86.9" r="24.23"></circle><circle class="cls-9" cx="415.03" cy="86.89" r="11.86" transform="translate(73.28 337.89) rotate(-48.12)"></circle><polygon class="cls-10" points="444.13 56.27 443.14 48.55 451 40.15 451.56 48.48 444.13 56.27"></polygon><polygon class="cls-10" points="460.99 50.13 453.02 49.48 445.03 57.16 453.02 58.02 460.99 50.13"></polygon><path class="cls-10" d="M452.28,46.41,439.6,59.26l-20.13,20.4c-1.55,1.56-3.09,3.13-4.63,4.69a1.62,1.62,0,0,0,2.29,2.29l12.69-12.86L450,53.39q2.31-2.36,4.63-4.69c1.46-1.49-.83-3.78-2.3-2.29Z"></path><path class="cls-11" d="M319.24,53.58c.6-4.39-5.6-8-10.26-8.39-2.23-.17-4.54.17-6.64-.57C297.77,43,296,37.14,291.5,35.26c-3.33-1.41-7.16-.16-10.39,1.47s-6.42,3.67-10,3.9c-3.14.2-6.55-1-9.29.57-2,1.14-3.12,3.49-5,4.88s-4.25,1.65-6.54,1.78-4.65.14-6.74,1.1-3.8,3.15-3.37,5.4Z"></path><path class="cls-12" d="M98.16,77.58c.57-4.15-5.27-7.55-9.67-7.91-2.09-.17-4.27.15-6.25-.54-4.3-1.5-6-7-10.22-8.82-3.13-1.32-6.74-.15-9.78,1.38s-6,3.46-9.45,3.68c-3,.19-6.16-.91-8.75.53-1.92,1.08-2.93,3.3-4.71,4.61s-4,1.55-6.16,1.67a18.25,18.25,0,0,0-6.35,1c-2,.86-3.58,3-3.18,5.09Z"></path><path class="cls-13" d="M182.57,25.19c.45-3.26-4.15-5.93-7.6-6.21-1.65-.14-3.36.12-4.92-.43-3.38-1.18-4.73-5.54-8-6.93-2.46-1-5.3-.12-7.69,1.09s-4.75,2.71-7.42,2.88c-2.33.15-4.85-.71-6.88.43-1.52.84-2.31,2.59-3.71,3.62A8.78,8.78,0,0,1,131.51,21a14,14,0,0,0-5,.81c-1.54.71-2.82,2.34-2.5,4Z"></path><path class="cls-14" d="M106.45,144.86c.45-3.25-4.15-5.93-7.6-6.21-1.65-.13-3.36.12-4.92-.42-3.38-1.18-4.73-5.55-8-6.94-2.46-1-5.3-.11-7.69,1.09s-4.76,2.72-7.43,2.89c-2.32.15-4.84-.72-6.87.42-1.52.84-2.31,2.59-3.71,3.62a8.62,8.62,0,0,1-4.87,1.27,13.74,13.74,0,0,0-5,.82c-1.54.7-2.82,2.34-2.5,4Z"></path><path class="cls-15" d="M400.82,14c.45-3.26-4.15-5.94-7.6-6.21-1.65-.14-3.36.11-4.92-.43-3.38-1.18-4.73-5.54-8-6.93-2.46-1-5.3-.12-7.69,1.08s-4.75,2.72-7.42,2.89c-2.33.15-4.85-.71-6.88.42-1.52.85-2.31,2.59-3.71,3.62a8.77,8.77,0,0,1-4.91,1.32,14,14,0,0,0-5,.81c-1.54.71-2.82,2.34-2.5,4Z"></path><path class="cls-16" d="M341.69,108.82c.45-3.26-4.15-5.93-7.6-6.21-1.65-.13-3.36.12-4.92-.43-3.38-1.17-4.73-5.54-8-6.93-2.47-1-5.31-.12-7.7,1.09s-4.75,2.71-7.42,2.88c-2.33.15-4.85-.71-6.88.43-1.51.84-2.31,2.59-3.7,3.62a8.78,8.78,0,0,1-4.84,1.31,14,14,0,0,0-5,.81c-1.54.71-2.82,2.34-2.5,4Z"></path><polygon class="cls-5" points="123.94 196.51 169.89 149.01 182.77 153.38 227.82 228.97 254.47 242.6 277.27 308.89 207.29 305.27 123.94 196.51"></polygon></g><g id="freepik--Floor--inject-110"><path class="cls-10" d="M486.58,282.34c.05.13-108.49,41.65-242.4,92.71S1.62,467.42,1.56,467.28,110,425.64,244,374.58,486.53,282.2,486.58,282.34Z"></path></g><g id="freepik--Moutains--inject-110"><path class="cls-3" d="M396.45,39.77a28.06,28.06,0,0,1-6.59.63A12.92,12.92,0,0,1,381.15,37c-2.58-2.56-3.91-6.48-6.74-8.7-2.53-2-6.45-1.9-9.18-.25V46c1.38-1.08,3.94-3.27,7.85-1.35,1.54.76,2.93,1.59,4.42,2.48,4.18,2.51,8.48,2.31,12.88.34a20.21,20.21,0,0,0,6.7-5.34C398.36,40.73,397.35,39.58,396.45,39.77Z"></path><path class="cls-10" d="M365.23,24.45c.14,0,.26,9,.26,20.05s-.12,20-.26,20-.26-9-.26-20S365.08,24.45,365.23,24.45Z"></path><polygon class="cls-2" points="470.34 175.99 445.18 164.97 376.36 66.11 357.89 59.44 282.85 141.78 262.01 153.19 183.72 234.63 163.51 253.24 271.48 363.98 487.41 281.69 487.41 211.5 470.34 175.99"></polygon><path class="cls-17" d="M376.36,66.11l-18.47-6.68-38.55,42.3,39.87-32.39L370.4,85.23c.4-.13,4.68-6.85,4.68-6.85s20,14.68,19.76,14.28S376.36,66.11,376.36,66.11Z"></path><polygon class="cls-5" points="184.07 235.28 273.05 166.01 309.26 157.65 336.75 82.63 282.85 141.78 262.01 153.19 184.07 235.28"></polygon><polygon class="cls-5" points="445.18 164.97 464.62 182.75 487.41 211.5 470.34 175.99 445.18 164.97"></polygon><path class="cls-5" d="M184.07,235.28l.35-.39,1.06-1.14,4.16-4.43,15.81-16.74L261.85,153h0l20.84-11.45h-.06l60.08-66q7.56-8.31,15-16.41l.11-.13.17.06,18.47,6.69h.07l0,.06,68.76,98.91-.08-.06,25.14,11h0v.05L482,200c1.32,2.8,2.34,4.95,3,6.41.33.72.59,1.27.77,1.64l.25.57s-.11-.18-.29-.55l-.8-1.63-3.11-6.38-11.72-24.22.07.07-25.17-11H445c-18-25.89-42-60.19-68.88-98.81l.12.09-18.47-6.68.28-.07L343.13,76,283,141.94h0l-20.9,11.44.06,0-56.49,59.42-15.9,16.66-4.21,4.38-1.08,1.12Z"></path><path class="cls-3" d="M133.46,157.63a34.72,34.72,0,0,1-8.13.79,15.93,15.93,0,0,1-10.72-4.26c-3.18-3.15-4.81-8-8.3-10.71-3.12-2.46-7.94-2.33-11.31-.31v22.21c1.71-1.34,4.86-4,9.67-1.66,1.9.93,3.62,1.95,5.45,3,5.14,3.09,10.44,2.84,15.85.42,2-.9,4.81-2.7,8.26-6.58C135.8,158.81,134.57,157.42,133.46,157.63Z"></path><path class="cls-10" d="M95,138.77c.15,0,.27,11,.27,24.69s-.12,24.68-.27,24.68-.26-11-.26-24.68S94.86,138.77,95,138.77Z"></path><polygon class="cls-2" points="203.46 280.5 182.63 268.26 107.58 179.88 89.11 187.06 37.86 298.26 12.71 310.07 0 348.63 1.83 466.38 72.24 440.06 272.6 363.55 203.46 280.5"></polygon><polygon class="cls-5" points="37.86 298.26 47.86 292.25 58.02 272.13 66.15 278.27 91.04 194.63 108.51 180.84 107.58 179.88 89.11 187.06 37.86 298.26"></polygon><path class="cls-18" d="M89.11,187.05l18.47-7.17,38.55,45.4S114.36,197.22,114,197.22c0,0-3.13,10.52-3.53,10.38s-19-18.7-19-18.7l-7.55,9.57Z"></path><path class="cls-5" d="M272.6,363.58s-.45-.5-1.29-1.49l-3.71-4.41c-3.25-3.87-8-9.55-14.06-16.79l-50.25-60.25.06.05-20.84-12.22h0c-18.94-22.28-40.34-47.48-62.92-74.06L107.39,180l.29.08L89.2,187.29l.14-.14C69.43,230.31,51.69,268.84,38,298.34v.06H38l-25.2,11.81.08-.09-9.43,28.4c-1.1,3.28-1.95,5.81-2.52,7.53L.24,348c-.15.44-.24.65-.24.65s.06-.22.2-.66.35-1.09.62-2l2.45-7.55c2.16-6.61,5.31-16.25,9.3-28.44V310h0l25.14-11.85-.08.09,51.2-111.27v-.09H89l18.47-7.18.24-.09.12.14L120,194l62.87,74.1h-.06l20.83,12.25h0l50.11,60.33,14,16.88,3.66,4.44Z"></path></g><g id="freepik--Rock--inject-110"><polygon class="cls-19" points="82.13 390.45 89.26 359.9 121.32 311.4 146.66 305.2 180.61 342.82 210.84 350.46 257.16 369.8 64.22 443.39 67.59 417.79 82.13 390.45"></polygon><path class="cls-5" d="M82.13,390.44s-.31.62-.93,1.82l-2.78,5.32L67.69,417.84h0c-.94,7.27-2.06,15.89-3.33,25.61l-.22-.17,185.58-70.9,7.32-2.79v.48l-46.32-19.33h0l-30.22-7.66h-.07V343L146.5,305.39l.21.06-25.34,6.13.12-.08L89.37,360h0L84,382.68c-.62,2.56-1.08,4.51-1.4,5.83s-.49,2-.49,2,.13-.67.43-2,.75-3.28,1.33-5.86c1.2-5.16,3-12.8,5.25-22.72h0l32-48.54v-.06h.08l25.33-6.22h.12l.09.09,34,37.6-.06-.22,30.23,7.64h0l46.34,19.36.6.25-.61.24-7.33,2.79L64.28,443.58l-.26.1v-.27c1.29-9.72,2.44-18.34,3.41-25.6v-.05l10.82-20.23c1.25-2.3,2.2-4.06,2.84-5.26S82.13,390.44,82.13,390.44Z"></path></g><g id="freepik--Plants--inject-110"><path class="cls-10" d="M410.13,291.13a16.49,16.49,0,0,1,2.2,2.14A64,64,0,0,1,417,299a67.62,67.62,0,0,1,4,6.21A15,15,0,0,1,422.4,308a21.7,21.7,0,0,1-1.68-2.56c-1-1.59-2.45-3.77-4.15-6.09s-3.34-4.35-4.55-5.79A21.94,21.94,0,0,1,410.13,291.13Z"></path><path class="cls-10" d="M419.09,282.1a35.12,35.12,0,0,1,1,3.61c.59,2.24,1.46,5.31,2.56,8.67s2.2,6.36,3,8.52a32.48,32.48,0,0,1,1.27,3.54,3.36,3.36,0,0,1-.49-.89c-.28-.58-.66-1.44-1.12-2.51-.91-2.14-2.07-5.13-3.18-8.5s-1.92-6.48-2.42-8.74c-.25-1.14-.44-2.06-.54-2.7A3.69,3.69,0,0,1,419.09,282.1Z"></path><path class="cls-10" d="M434.19,287.89c.07,0-.42.84-.93,2.25a19.19,19.19,0,0,0-1.09,5.7c0,2.29-.16,4.4-.07,5.88a20,20,0,0,1,.15,2.44,8.24,8.24,0,0,1-.52-2.41,51,51,0,0,1-.08-5.93,16.66,16.66,0,0,1,1.27-5.82A6.08,6.08,0,0,1,434.19,287.89Z"></path><path class="cls-10" d="M150.86,412.14a38.22,38.22,0,0,0-5-4.65,39.87,39.87,0,0,0-6-3.24,6,6,0,0,1,2,.5,18.68,18.68,0,0,1,4.31,2.32,18.25,18.25,0,0,1,3.55,3.36A6.06,6.06,0,0,1,150.86,412.14Z"></path><path class="cls-10" d="M150.87,391.32c.09,0-.09,1.11-.12,2.89a24,24,0,0,0,.91,6.85,23.41,23.41,0,0,0,2.87,6.29,28,28,0,0,1,1.63,2.39,2.43,2.43,0,0,1-.58-.53,13.55,13.55,0,0,1-1.36-1.65,21,21,0,0,1-3.84-13.37,16.85,16.85,0,0,1,.28-2.12A2.47,2.47,0,0,1,150.87,391.32Z"></path><path class="cls-10" d="M161.2,396.58a12.62,12.62,0,0,1-.56,1.6,12.1,12.1,0,0,0-.56,4,11.34,11.34,0,0,0,.82,3.91,11.75,11.75,0,0,1,.66,1.56,4.1,4.1,0,0,1-1-1.41,9.73,9.73,0,0,1-1-4,9.86,9.86,0,0,1,.74-4.11A3.79,3.79,0,0,1,161.2,396.58Z"></path><path class="cls-3" d="M58.11,397.38a8.62,8.62,0,0,1,6.41,2.07,15.33,15.33,0,0,1,4,5.59c1.83,4.07,1.94,9.21,1.41,13.65-4.88-.91-8.52-5.36-10.22-7.74-2.69-3.76-5.27-12.19-1.59-13.57"></path><path class="cls-3" d="M77.39,422.78a7.31,7.31,0,0,1-1.51-7.2,9.73,9.73,0,0,1,5-5.59,4.1,4.1,0,0,1,3.43-.39A3.09,3.09,0,0,1,86,412.31a6.27,6.27,0,0,1-.84,3.2c-1.75,3.39-4.07,6.36-7.78,7.28"></path><path class="cls-10" d="M80.19,436.93a4.9,4.9,0,0,1-.35-.85L79,433.73a25.39,25.39,0,0,1-1.82-8.07,15.78,15.78,0,0,1,1.8-8.05,11.44,11.44,0,0,1,1.47-2c.19-.22.37-.37.48-.48s.18-.16.19-.15a17.19,17.19,0,0,0-1.94,2.79,16.26,16.26,0,0,0-1.68,7.93,27.69,27.69,0,0,0,1.71,8c.34,1,.6,1.82.77,2.39A5.25,5.25,0,0,1,80.19,436.93Z"></path><path class="cls-10" d="M60.69,403.58a3.33,3.33,0,0,1,.24.32c.16.25.38.56.64,1,.55.83,1.33,2,2.29,3.54,1.91,3,4.49,7.18,7.23,11.87s5.14,9,6.82,12.12c.85,1.56,1.52,2.84,2,3.72l.51,1a2,2,0,0,1,.16.37,1.85,1.85,0,0,1-.21-.33l-.57-1c-.51-.9-1.2-2.15-2.06-3.67-1.73-3.11-4.15-7.38-6.89-12.07s-5.37-8.82-7.23-11.82L61.42,405l-.59-1A1.32,1.32,0,0,1,60.69,403.58Z"></path><path class="cls-3" d="M73.2,428.4a17.19,17.19,0,0,0-14.51-6c-1.38.12-3,.61-3.39,1.94s.64,2.64,1.73,3.5a14.66,14.66,0,0,0,16.24,1"></path><path class="cls-10" d="M61.4,425.66a4.81,4.81,0,0,1,.85-.1c.33,0,.67-.05,1-.05s.89,0,1.34,0a14.77,14.77,0,0,1,1.63.18,16.69,16.69,0,0,1,1.84.38,19.11,19.11,0,0,1,4,1.57,18.87,18.87,0,0,1,3.5,2.5,18.66,18.66,0,0,1,2.33,2.62c.31.4.52.8.74,1.13s.34.59.49.89a4.63,4.63,0,0,1,.35.79c-.06,0-.58-1.09-1.77-2.67a14.66,14.66,0,0,0-1-1.24,17.86,17.86,0,0,0-1.31-1.3,19.33,19.33,0,0,0-3.45-2.43A20.48,20.48,0,0,0,68,426.35c-.63-.16-1.23-.31-1.81-.4a14.43,14.43,0,0,0-1.59-.21C62.63,425.58,61.4,425.73,61.4,425.66Z"></path></g><g id="freepik--Flag--inject-110"><path class="cls-3" d="M473.51,142.21a74.34,74.34,0,0,1-17.28,1.68c-8.24-.34-16.66-3-22.8-9-6.77-6.7-10.25-17-17.66-22.8-6.64-5.22-16.9-5-24-.66v47.2c3.62-2.83,10.33-8.56,20.55-3.52,4.05,2,7.7,4.15,11.6,6.49,10.93,6.57,22.2,6,33.72.89,4.3-1.91,10.22-5.73,17.56-14C478.49,144.73,475.87,141.76,473.51,142.21Z"></path><path class="cls-10" d="M392.34,318.08V110.81c0-2.78.06-5.57,0-8.36v-.35a.63.63,0,0,0-1.25,0v216a.63.63,0,0,0,.7.55A.64.64,0,0,0,392.34,318.08Z"></path></g><g id="freepik--speech-bubble--inject-110"><path class="cls-8" d="M203.11,109,202,101.91a27.4,27.4,0,1,0-6.55,7.3h0Z"></path><path class="cls-10" d="M203.11,109h-.48l-1.46.07-5.75.23a.1.1,0,0,1-.11-.08v0a.08.08,0,0,1,0-.07h0l.15.14a27,27,0,0,1-12.06,5.42,27.35,27.35,0,0,1-26.47-10.19,27.07,27.07,0,0,1-5.15-10.7,28.34,28.34,0,0,1,0-12.63,27,27,0,0,1,6.1-11.74A28.5,28.5,0,0,1,163,64.88c1-.6,1.9-1.21,2.88-1.73l1.51-.71.75-.35.78-.28a28.1,28.1,0,0,1,12.65-1.61,27.15,27.15,0,0,1,11.34,3.89A28.15,28.15,0,0,1,201,71.61a27.67,27.67,0,0,1,4.25,9c.16.77.32,1.53.47,2.28s.18,1.49.27,2.22a25,25,0,0,1,.06,4.24,27.22,27.22,0,0,1-4,12.54v-.07c.34,2.29.6,4.07.78,5.3.08.58.15,1,.19,1.36s.06.45.06.45a1.75,1.75,0,0,0-.1-.48,13.34,13.34,0,0,1-.24-1.38c-.21-1.21-.51-3-.9-5.22v-.07a27.28,27.28,0,0,0,3.89-12.45,24.47,24.47,0,0,0-.09-4.19c-.09-.71-.13-1.45-.28-2.19s-.31-1.48-.48-2.24a27.15,27.15,0,0,0-12.17-16.2,26.49,26.49,0,0,0-11.14-3.79,27.63,27.63,0,0,0-12.42,1.59l-.76.27-.74.35-1.48.7c-1,.51-1.89,1.11-2.83,1.7a28.7,28.7,0,0,0-5,4.46,26.71,26.71,0,0,0-6,11.52,27.86,27.86,0,0,0-.06,12.39,26.63,26.63,0,0,0,5,10.53,27.67,27.67,0,0,0,8.16,7.07,27.22,27.22,0,0,0,29.89-2.17.14.14,0,0,1,.15,0,.1.1,0,0,1,0,.13h0l-.08-.17,5.68-.11h1.49Z"></path><path class="cls-3" d="M193.69,61.58h-30c-.1.26-2.1,28.14,15,28.67C195.81,89.71,193.81,61.83,193.69,61.58Z"></path><rect class="cls-3" x="160.43" y="58.84" width="36.53" height="3.52" rx="1.36"></rect><path class="cls-3" d="M169.32,85.45C163.91,84,160.26,80.09,158.78,74a26.58,26.58,0,0,1-.6-8.62l.11-.86H166v2h-5.91a25.28,25.28,0,0,0,.64,7.1c1.32,5.34,4.39,8.68,9.11,9.92Z"></path><path class="cls-3" d="M188,85.45l-.5-1.9c4.75-1.24,7.82-4.6,9.13-10a24.94,24.94,0,0,0,.63-7h-5.91v-2h7.69l.11.86a26.31,26.31,0,0,1-.61,8.62C197.1,80.09,193.45,84,188,85.45Z"></path><path class="cls-3" d="M181.69,91.89a29,29,0,0,1-1-6h-4a29,29,0,0,1-1,6c-2.23,9-10.22,9.51-10.22,9.51V104h26.4V101.4S183.92,100.91,181.69,91.89Z"></path><path class="cls-10" d="M194.69,62.24c0,.14-7.1.26-15.84.26S163,62.38,163,62.24,170.1,62,178.85,62,194.69,62.1,194.69,62.24Z"></path><path class="cls-10" d="M190.69,81.58a5.67,5.67,0,0,1-.43,1.15,14.47,14.47,0,0,1-1.81,2.83,12.71,12.71,0,0,1-3.89,3.14,12.53,12.53,0,0,1-5.95,1.37,12.13,12.13,0,0,1-5.92-1.49,12.45,12.45,0,0,1-3.76-3.28,18.1,18.1,0,0,1-1.82-2.82,4.48,4.48,0,0,1-.49-1.12c.09-.06.82,1.55,2.59,3.71a13.28,13.28,0,0,0,3.71,3.09,12,12,0,0,0,5.69,1.44,12.38,12.38,0,0,0,5.73-1.28,12.8,12.8,0,0,0,3.82-3A23.84,23.84,0,0,0,190.69,81.58Z"></path><path class="cls-20" d="M179.5,69.58l1,2.11a.84.84,0,0,0,.67.48l2.33.34a.9.9,0,0,1,.75,1,.87.87,0,0,1-.26.5l-1.65,1.57a.88.88,0,0,0-.25.78l.4,2.32a.89.89,0,0,1-1.29.93l-2.08-1.1a.91.91,0,0,0-.82,0l-2.08,1.1a.89.89,0,0,1-1.2-.37.9.9,0,0,1-.09-.56l.4-2.32a.88.88,0,0,0-.25-.78l-1.69-1.65a.89.89,0,0,1,.49-1.5l2.33-.34a.84.84,0,0,0,.67-.48l1-2.11a.88.88,0,0,1,1.17-.41A.9.9,0,0,1,179.5,69.58Z"></path><path class="cls-10" d="M191.4,101.51c0,.14-5.85.26-13.06.26s-13.06-.12-13.06-.26,5.84-.26,13.06-.26S191.4,101.36,191.4,101.51Z"></path></g><g id="freepik--Character--inject-110"><path class="cls-21" d="M316.58,193.83c.32,0,4-.37,4.76-1.41a2.58,2.58,0,0,0,.08-2.4,4.19,4.19,0,0,0,1.45-2.33,4.44,4.44,0,0,0-.81-2.66l.36-1.19a2.43,2.43,0,0,0-.32-2.52,4.43,4.43,0,0,1-1.65-2.16c-.36-1.3-4.42-1.84-6.39-2.23s-4.61-1-6.63,1.5c-2.71,3.29-7.29,8.48-7.29,8.48L304,197.45s1.73,1,5.58.07A19.49,19.49,0,0,0,316.58,193.83Z"></path><polygon class="cls-22" points="314.32 191.78 341.08 337.6 342.18 337.23 317.25 189.31 314.32 191.78"></polygon><path class="cls-10" d="M312.44,186.1s-1.94-5.6-4.17-7.79-4.23-3.16-1.81-4.79,8.51-4,9.19-2.16-.17,1-.43,2.49,2.54,8,3.35,10.6,3.88,11,2.77,11.68c-.79.47-4.72.9-6.87,1.11A1.37,1.37,0,0,1,313,196V196Z"></path><path class="cls-10" d="M326,187.09a13.13,13.13,0,0,0-7.88-9.85c-5-2-4.32-1.21-4.32-1.21l-.56,2.11c6.43-.28,9,5.08,9.78,6.22,1,1.43,1.7,4.86.38,5.64s-4.26-.76-4.26-.76l-1.67,1.24s4.62,2.63,6.71,2.62S326.69,190.91,326,187.09Z"></path><path class="cls-22" d="M330.33,259.25a2.34,2.34,0,1,1-2.42-2.26A2.34,2.34,0,0,1,330.33,259.25Z"></path><path class="cls-22" d="M338.41,305.77a2,2,0,1,1,0-.1Z"></path><path class="cls-21" d="M321,185.24a17.13,17.13,0,0,1-4.05.93c-.64.07-1.28.1-1.92.23a4,4,0,0,0-1.76.75,2.26,2.26,0,0,0-.88,1.65,1.56,1.56,0,0,0,1,1.51,1.46,1.46,0,0,0-.72,1.71,2.22,2.22,0,0,0,1.37,1.4,5.26,5.26,0,0,0,2,.33,13.11,13.11,0,0,0,3-.23,3.93,3.93,0,0,0,2.28-1.17,1.84,1.84,0,0,0,.08-2.37,2.77,2.77,0,0,0,1-1.76"></path><path class="cls-21" d="M312.74,185.9a1.9,1.9,0,0,1-1.15-1.87c.11-.9,1-1.49,1.85-1.82a19.2,19.2,0,0,1,6.39-.91l1.05.63a5.11,5.11,0,0,1,.5,1.35,1.6,1.6,0,0,1-.33,1.35,2.46,2.46,0,0,1-1.22.6,18.18,18.18,0,0,1-4.12.91A7.09,7.09,0,0,1,312.74,185.9Z"></path><path class="cls-23" d="M321.42,190a11.47,11.47,0,0,0-2.19-.09c-1.35,0-3.22,0-5.28.09h-1a.61.61,0,0,0-.26.15,1,1,0,0,0-.24.42,3.3,3.3,0,0,0,.08,1.5,1.89,1.89,0,0,0,.78,1.13,2.81,2.81,0,0,0,1.06.47,5.52,5.52,0,0,0,1.62.18c.39,0,.6-.05.59-.08a9.13,9.13,0,0,1-2.11-.41A2,2,0,0,1,313,192a2.72,2.72,0,0,1-.06-1.27.39.39,0,0,1,.11-.22c.07-.05,0,0,.2,0H314c2.06-.06,3.92-.15,5.27-.23A9.47,9.47,0,0,0,321.42,190Z"></path><path class="cls-23" d="M322.06,185a8.05,8.05,0,0,0-1.83.17c-1.12.16-2.68.42-4.4.72h-.14a5.14,5.14,0,0,0-2.51.72,2.15,2.15,0,0,0-1,1.9,2.55,2.55,0,0,0,.49,1.36c.2.27.35.39.37.37a1.82,1.82,0,0,0-.21-.46,2.66,2.66,0,0,1-.32-1.27,1.85,1.85,0,0,1,.9-1.55,4.84,4.84,0,0,1,2.29-.61h.22c1.71-.31,3.26-.62,4.37-.86A7.27,7.27,0,0,0,322.06,185Z"></path><path class="cls-23" d="M322.1,181.32a15.38,15.38,0,0,0-2.57,1h-7.08l-.06.07a4.42,4.42,0,0,0-.8,1.29,2.16,2.16,0,0,0-.07,1.44,1.56,1.56,0,0,0,.89,1,2.93,2.93,0,0,0,1,.24,5.31,5.31,0,0,0,1.49-.06c.34-.06.53-.12.52-.15a14.08,14.08,0,0,1-2-.09c-.57-.08-1.39-.28-1.59-1a2.59,2.59,0,0,1,.82-2.28l-.16.07h1.41c2.18,0,4.16-.06,5.64-.12h.15A14.59,14.59,0,0,0,322.1,181.32Z"></path><path class="cls-21" d="M303.18,186.39s4.94-7.39,5.18-7.51,8.15-1.14,10-.34,4,1.94,4,1.94.27,2-2.88,2.18-6.42.07-6.42.07l-1.72,2.52s.7,6.74-5.27,8.64"></path><path class="cls-23" d="M306,193.89a5.43,5.43,0,0,0,.75-.24,4,4,0,0,0,.86-.4,6.35,6.35,0,0,0,1-.67,7.25,7.25,0,0,0,2-2.82,10.24,10.24,0,0,0,.72-4.48v.12l1.74-2.51L313,183h4.82a16.16,16.16,0,0,0,2.6-.18,3.2,3.2,0,0,0,1.28-.56,2,2,0,0,0,.78-1.23,1.46,1.46,0,0,0,0-.51v-.11h-.11l-2.19-1.06-1.07-.52a8.14,8.14,0,0,0-1.09-.47,10.51,10.51,0,0,0-2.31-.2c-.75,0-1.47,0-2.18.07-1.42.1-2.75.24-4,.4l-.93.14h-.37l-.13.12c-.11.14-.19.24-.28.37l-.95,1.38c-1.2,1.76-2.14,3.21-2.79,4.21l-.73,1.16a2.91,2.91,0,0,0-.23.42,2.2,2.2,0,0,0,.3-.37l.8-1.12,2.89-4.13,1-1.36.26-.33h0V179c.05.1.05.07.05.07h.27l.91-.13c1.24-.15,2.58-.27,4-.35.71,0,1.43-.07,2.16-.07a10.69,10.69,0,0,1,2.19.2,9,9,0,0,1,1,.46l1.06.52,2.17,1.05-.11-.16a1.15,1.15,0,0,1,0,.37,2,2,0,0,1-1.74,1.45,15.18,15.18,0,0,1-2.52.18h-4.9l-.06.08c-.59.88-1.17,1.72-1.71,2.53v.12a10,10,0,0,1-.64,4.33,7.27,7.27,0,0,1-1.9,2.77A12.15,12.15,0,0,1,306,193.89Z"></path><path class="cls-3" d="M300.75,184.87l-29.22,4.37-8.07-27.83-9.77,41.64,6,4.08a15.23,15.23,0,0,0,12.8,2l33.23-9Z"></path><path class="cls-3" d="M252.69,145.48l2.8.13,1.58.65a64.9,64.9,0,0,1,8.22,28.66l.47,10.78-.16,67.9-23-3.18-2.91-19.72Z"></path><path class="cls-20" d="M264.91,248.76s0-22.63.17-31.22-2.46-39.68-2.46-39.68-9.67,63.33-9.33,63.43S264.91,248.76,264.91,248.76Z"></path><path class="cls-10" d="M262,160.44a3.06,3.06,0,0,1,.17.48c.1.38.23.84.38,1.4.3,1.24.67,3,1,5.28.68,4.48,1.14,10.73,1.47,17.63s.47,13.14.65,17.66c.1,2.2.18,4,.24,5.35,0,.58.05,1.06.07,1.45a2.17,2.17,0,0,1,0,.51,1.65,1.65,0,0,1-.1-.5c0-.39-.1-.87-.16-1.45-.13-1.26-.27-3.08-.41-5.34-.27-4.52-.49-10.77-.8-17.66s-.73-13.12-1.31-17.6c-.28-2.24-.59-4-.82-5.28l-.3-1.43A1.69,1.69,0,0,1,262,160.44Z"></path><path class="cls-10" d="M220.85,368.58l-1.6,12.51.2,1.61s20.2,3.95,21,7.43l-36.82,6-1.42-8.45,2-20.61Z"></path><path class="cls-4" d="M207.81,383a1.53,1.53,0,0,0-.76,1.88,1.44,1.44,0,0,0,1.86.77,1.59,1.59,0,0,0,.79-2,1.51,1.51,0,0,0-2-.58"></path><path class="cls-22" d="M203.62,396.18l-.38-3,35.45-4.6s1.76.45,1.76,1.63Z"></path><path class="cls-8" d="M220,382.45c0,.18-.86.41-1.65,1.13s-1.14,1.56-1.32,1.51-.08-1.12.9-2S220,382.28,220,382.45Z"></path><path class="cls-8" d="M224.14,383.42c.07.17-.66.6-1.14,1.46s-.54,1.69-.72,1.71-.46-1,.17-2S224.11,383.25,224.14,383.42Z"></path><path class="cls-8" d="M227.09,387.68c-.16.07-.56-.79-.25-1.85s1.07-1.59,1.17-1.45-.33.75-.56,1.62S227.26,387.64,227.09,387.68Z"></path><path class="cls-10" d="M316,335l.1,12.61.42,1.57s20.55,1.19,21.8,4.53l-35.67,10.92-2.55-8.17-.82-20.69Z"></path><path class="cls-4" d="M305,351.05a1.54,1.54,0,0,0-.5,2,1.45,1.45,0,0,0,1.95.51,1.61,1.61,0,0,0,.52-2.09,1.54,1.54,0,0,0-2.09-.3"></path><path class="cls-22" d="M302.62,364.67l-.78-2.92,34.49-9.37s1.8.2,2,1.37Z"></path><path class="cls-8" d="M317,348.86c0,.18-.8.52-1.49,1.34s-.92,1.7-1.1,1.68-.23-1.11.62-2.09S317,348.69,317,348.86Z"></path><path class="cls-8" d="M321.23,349.26c.09.16-.57.69-.94,1.6s-.3,1.75-.47,1.8-.59-.91-.11-2S321.18,349.1,321.23,349.26Z"></path><path class="cls-8" d="M324.69,353.09c-.15.08-.66-.71-.5-1.8s.85-1.72,1-1.6-.23.79-.35,1.69S324.89,353,324.69,353.09Z"></path><path class="cls-21" d="M235.29,145.49l-1.72-37.6c-.74-9.34,4.09-17.55,13.45-18h.86a16.76,16.76,0,0,1,16.58,15.53c.59,8.1,1.14,17,1.05,21.4-.18,9-9.18,10.31-9.18,10.31s.13,5.47.22,8.1l2.32,6.09-7.45-1.55Z"></path><path class="cls-23" d="M256.33,137.11a21.59,21.59,0,0,1-11.64-3.53s2.77,6.78,11.74,6Z"></path><path class="cls-10" d="M261.51,113.22a1.27,1.27,0,0,1-1.25,1.28,1.21,1.21,0,0,1-1.31-1.12v0a1.28,1.28,0,0,1,1.25-1.29,1.24,1.24,0,0,1,1.31,1.15Z"></path><path class="cls-10" d="M262.52,109.36c-.16.16-1.13-.57-2.51-.57s-2.4.67-2.55.5.09-.37.54-.69a3.57,3.57,0,0,1,2-.61,3.35,3.35,0,0,1,2,.66C262.46,109,262.6,109.28,262.52,109.36Z"></path><path class="cls-10" d="M248.9,113.42a1.27,1.27,0,0,1-1.25,1.28,1.22,1.22,0,0,1-1.32-1.13v0a1.3,1.3,0,0,1,1.25-1.29,1.23,1.23,0,0,1,1.32,1.14Z"></path><path class="cls-10" d="M249,109.58c-.16.17-1.12-.56-2.5-.57s-2.4.68-2.55.51.09-.38.53-.7a3.65,3.65,0,0,1,2-.61,3.49,3.49,0,0,1,2,.66C248.91,109.19,249.05,109.5,249,109.58Z"></path><path class="cls-10" d="M253.85,120.22a10,10,0,0,1,2.24-.38c.36,0,.69-.1.75-.35a1.77,1.77,0,0,0-.22-1l-1-2.7a47.11,47.11,0,0,1-2.28-7,47.47,47.47,0,0,1,2.85,6.84l1,2.71a2.09,2.09,0,0,1,.18,1.39.88.88,0,0,1-.59.51,2.06,2.06,0,0,1-.6.08A8.66,8.66,0,0,1,253.85,120.22Z"></path><path class="cls-10" d="M249.46,105.25c-.2.35-1.53,0-3.16-.07s-3,.19-3.16-.17c-.07-.18.21-.49.78-.77a5.46,5.46,0,0,1,4.81.18C249.29,104.75,249.54,105.09,249.46,105.25Z"></path><path class="cls-10" d="M262.61,105.29c-.28.32-1.41,0-2.76,0s-2.5.23-2.76-.1c-.12-.16.06-.47.56-.78a4.6,4.6,0,0,1,2.24-.53,4.41,4.41,0,0,1,2.21.62C262.58,104.82,262.74,105.14,262.61,105.29Z"></path><path class="cls-21" d="M234.25,114.58c-.15-.06-6.16-1.87-6,4.28s6.29,4.73,6.29,4.55S234.25,114.58,234.25,114.58Z"></path><path class="cls-23" d="M232.6,121.1l-.29.16a.93.93,0,0,1-.8,0,2.66,2.66,0,0,1-1.28-2.35,3.55,3.55,0,0,1,.26-1.54,1.21,1.21,0,0,1,.79-.84.53.53,0,0,1,.64.28c.08.17.05.29.08.3s.13-.11.07-.36a.64.64,0,0,0-.25-.38.82.82,0,0,0-.59-.14,1.51,1.51,0,0,0-1.1,1,3.65,3.65,0,0,0-.33,1.72,2.77,2.77,0,0,0,1.63,2.62,1.12,1.12,0,0,0,1-.19C232.59,121.24,232.62,121.11,232.6,121.1Z"></path><path class="cls-10" d="M249.54,121.22c.21,0,.27,1.39,1.52,2.35s2.74.74,2.76.94-.33.29-1,.33a3.46,3.46,0,0,1-2.3-.71,3,3,0,0,1-1.18-2C249.3,121.58,249.45,121.22,249.54,121.22Z"></path><path class="cls-10" d="M276.59,96.9a1.46,1.46,0,0,0-.7-.84,4.68,4.68,0,0,0-2.31-.32,12.75,12.75,0,0,1-5.66-1.29,6.1,6.1,0,0,0,1.63-1.19,3.88,3.88,0,0,0,1-3.87.86.86,0,0,0-.5-.57c-.4-.12-.74.28-1,.6a3.29,3.29,0,0,1-3.1,1.39,5.11,5.11,0,0,1-2.35-.64.3.3,0,0,1-.08-.08l-1-.93h0a20.69,20.69,0,0,0-6.46-4.57A20.9,20.9,0,0,0,244.89,84c-3.11.89-5.86,3.49-6.23,6.7-1.78-1.44-4.42-1.37-6.54-.46h-.05c-2.36.91-3.66,3.45-4.31,5.89a1.53,1.53,0,0,1-.1.41,9.22,9.22,0,0,1-3.13,3.2c-.23.14-.49.31-.51.57s.21.48.42.63a4.61,4.61,0,0,0,1.95.75,10.22,10.22,0,0,1-.75,1.69c-.26.46-.57,1-.32,1.48a1,1,0,0,0,1.06.44,2.64,2.64,0,0,0,1.09-.53l-.75,1.93a5.51,5.51,0,0,0,2.58-.23c.56,2.26,1,6.45,1.65,8,1.64,0,2-.2,2.86.06,1.07.33.71,2.22,2.08,1.66.7-.29,1.72-3,1.94-3.71A35.08,35.08,0,0,0,239,97.55,11.46,11.46,0,0,1,242.45,95l-.1.1c2.49-.93,5.31-1.85,7.72-.72,1.87.87,3,2.77,4.42,4.27a12.87,12.87,0,0,0,9.6,4.41c.41,2.7.62,7.14.81,9.67l2.05-5.12h0c.17-.3.3-.6.44-.9v-.1h0c.2-.49.43-1,.68-1.45h0a1.57,1.57,0,0,0,2.22-.24,1.59,1.59,0,0,0,0-1.93,3.71,3.71,0,0,0-.78-.75,2.49,2.49,0,0,0,2.4.56,2,2,0,0,0,1.34-2,1.71,1.71,0,0,0-1-1.32,5.5,5.5,0,0,0,3.19-.78C276.22,98.3,276.82,97.69,276.59,96.9Z"></path><path class="cls-22" d="M241.58,91.64a10.12,10.12,0,0,0-.88.85,6.45,6.45,0,0,0-1.32,3,11.06,11.06,0,0,0-.18,2.29c0,.83.1,1.71.19,2.65a22.25,22.25,0,0,1,.13,2.94,10.19,10.19,0,0,1-.17,1.57,3.21,3.21,0,0,1-.6,1.52,1.32,1.32,0,0,1-1.26.45,2,2,0,0,1-1.16-.62,4.6,4.6,0,0,1-.91-2.26h.18a7.1,7.1,0,0,1-1,1.91,2.68,2.68,0,0,1-1.73,1,1.66,1.66,0,0,1-.93-.15,1.48,1.48,0,0,1-.64-.6,1.57,1.57,0,0,1-.21-.8,1.15,1.15,0,0,1,.27-.7l.1.08a5.62,5.62,0,0,1-1.9,1.49,4.35,4.35,0,0,1-.59.25l-.28.07a.72.72,0,0,1,.2-.09l.58-.28a5.92,5.92,0,0,0,1.83-1.51l.1.08a1.14,1.14,0,0,0,0,1.34,1.26,1.26,0,0,0,.58.54,1.52,1.52,0,0,0,.84.12,2.52,2.52,0,0,0,1.61-1,7.26,7.26,0,0,0,1-1.86l.12-.29.07.31a4.37,4.37,0,0,0,.87,2.16,1.76,1.76,0,0,0,1,.56,1.12,1.12,0,0,0,1.07-.39,3.1,3.1,0,0,0,.56-1.42,11,11,0,0,0,.16-1.53,24,24,0,0,0-.12-2.93c-.08-.93-.16-1.82-.16-2.66a12.12,12.12,0,0,1,.2-2.32,6.46,6.46,0,0,1,1.4-3A3.88,3.88,0,0,1,241.58,91.64Z"></path><path class="cls-22" d="M269.61,99.78l-.07.06-.23.17a1.51,1.51,0,0,1-.37.25,2.86,2.86,0,0,1-.54.3,7.87,7.87,0,0,1-3.84.78,10.06,10.06,0,0,1-5.47-1.88,17.53,17.53,0,0,1-4.79-5.28c-.68-1.07-1.23-2.18-1.84-3.19a12.09,12.09,0,0,0-2.08-2.7,6.16,6.16,0,0,0-2.62-1.51,4.53,4.53,0,0,0-1.37-.13,5.26,5.26,0,0,0-1.25.27,5.2,5.2,0,0,0-1.85,1.17,5,5,0,0,0-1,1.34,6.13,6.13,0,0,0-.43,1.36v-.37a5.28,5.28,0,0,1,.32-1,5.23,5.23,0,0,1,1-1.39,5.36,5.36,0,0,1,1.88-1.22,5.06,5.06,0,0,1,1.28-.29,4.92,4.92,0,0,1,1.43.12,6.36,6.36,0,0,1,2.72,1.54,12.39,12.39,0,0,1,2.11,2.73c.62,1,1.18,2.13,1.85,3.19a17.5,17.5,0,0,0,4.72,5.23,10,10,0,0,0,5.37,1.89,8,8,0,0,0,3.79-.7A12.51,12.51,0,0,0,269.61,99.78Z"></path><path class="cls-22" d="M270.34,95.81A1.44,1.44,0,0,1,270,96a5.79,5.79,0,0,1-.95.51,9.23,9.23,0,0,1-1.5.53,10.48,10.48,0,0,1-1.93.3,10.62,10.62,0,0,1-1.95-.09,9.2,9.2,0,0,1-1.55-.37,5.35,5.35,0,0,1-1-.4c-.23-.11-.35-.18-.34-.2s.52.21,1.38.46a8.83,8.83,0,0,0,1.53.31,11.06,11.06,0,0,0,1.91.08,12.27,12.27,0,0,0,1.9-.28,9.94,9.94,0,0,0,1.49-.48C269.84,96.07,270.32,95.77,270.34,95.81Z"></path><path class="cls-10" d="M216.69,264.32l-7.41,46.4s-9.62,57.58-9.87,69.18l24.84.47s7.22-54.74,12-62.79,14.95-72.22,14.95-72.22Z"></path><path class="cls-10" d="M253.79,240.58s49.93,26.66,53.84,33,11.6,72.7,11.6,72.7l-22.31,7.94-11.1-60.62-53.77-20s-14.39-5.78-21.13-12.37S206,242.5,206,242.5l4.65-6,45.39-7.91Z"></path><path class="cls-22" d="M220.89,270a2.3,2.3,0,0,0,.64.29l1.87.72,6.92,2.58,22.8,8.55c8.91,3.34,17,6.32,22.86,8.4,2.94,1.05,5.32,1.87,7,2.42l1.9.63a2.73,2.73,0,0,0,.68.18,5.17,5.17,0,0,0-.64-.28l-1.87-.72-6.92-2.58-22.82-8.58c-8.91-3.35-17-6.32-22.86-8.41-2.94-1-5.32-1.87-7-2.42l-1.9-.62C221.33,270.07,221.11,270,220.89,270Z"></path><path class="cls-22" d="M254.05,240.77a56.3,56.3,0,0,1-6-1.44c-3.29-.84-6-1.3-6-1.44a22.69,22.69,0,0,1,6.12.93A28.18,28.18,0,0,1,254.05,240.77Z"></path><path class="cls-24" d="M258.48,148.67l-2-4.93-.84,1.25-.78-1.29-21.37-9.58-1.8,4.46-7,2.69a13.68,13.68,0,0,0-8.54,10.31l-2.61,31.49.07,5.1-.74,17.41c.67,1.14-8.16,14.31-8.42,19s4.48,8.57,4.48,8.57L256,236.72s2.38.35,4.35-4c1.72-3.81,1.58-29.92,1.58-29.92s.11-14,.57-23.56A94.2,94.2,0,0,0,261,162.07Z"></path><path class="cls-3" d="M230.77,138.15l1.91-3.11s9.58,6.71,12,13.56,2.41,37.1,1.16,45.51c-1.36,9.08-2.15,19.9-16.55,35.11-16.56,17.5-10.4,35.88-13.71,37.2,0,0-25.44-8.15-25-11,2-14,19.44-45.51,19.59-45.92l2.55-28.2-.29-33.38h0c4-2.7,6.09-4.92,9.82-6.15Z"></path><polygon class="cls-20" points="232.72 167.01 211.15 198.07 212.11 187.5 232.72 167.01"></polygon><path class="cls-10" d="M242.46,207.58a5.1,5.1,0,0,1,.15-.76c.11-.55.27-1.26.46-2.16.37-1.88.87-4.61,1.22-8,.17-1.7.31-3.57.33-5.58a59.72,59.72,0,0,0-.35-6.41c-.41-4.52-.85-9.48-1.32-14.69q-.51-6-1-11.33v-.14l2.25-4.35.16.33-2.46-.63h-.08v-.06c-3.24-4.73-6-8.65-7.9-11.38-1-1.36-1.73-2.42-2.28-3.13-.27-.36-.49-.62-.63-.8s-.24-.25-.23-.26a36.21,36.21,0,0,1,3.36,4c2,2.65,4.78,6.57,8.05,11.27l-.13-.09,2.46.62.29.07-.14.26-2.23,4.37v-.14c.32,3.56.66,7.38,1,11.33.45,5.22.88,10.18,1.28,14.71a58,58,0,0,1,.3,6.45,50.25,50.25,0,0,1-.39,5.61,69.32,69.32,0,0,1-1.4,8c-.22.94-.41,1.66-.55,2.14A3.81,3.81,0,0,1,242.46,207.58Z"></path><path class="cls-10" d="M211.2,222.58a4.36,4.36,0,0,1-.38.37l-1.13.94-4.12,3.33-.07-.34,13.46,4-.24.05.08-.07,5.69-5,.1.42-9.6-2.59-2.78-.79a5.13,5.13,0,0,1-1-.34,8.37,8.37,0,0,1,1,.18l2.78.65c2.38.57,5.77,1.41,9.74,2.41l.45.12-.35.3-5.67,5-.08.07-.11.1h-.13l-13.43-4.1-.37-.11.31-.23,4.29-3.22C210.14,223.32,210.66,222.94,211.2,222.58Z"></path><path class="cls-10" d="M259.24,152.11c-.06,0-.37-.62-1.1-1.59l-1.34-1.72a11.68,11.68,0,0,1-1.49-2.41l.42.05-2.29,3c-.6.79-1.18,1.54-1.72,2.26l-.13.16-.18-.09c-2.06-1-3.85-1.79-5.1-2.41a10.41,10.41,0,0,1-2-1.07,12.9,12.9,0,0,1,2.1.78c1.29.54,3.1,1.32,5.18,2.25l-.3.07,1.7-2.26,2.32-3,.26-.33.16.38a28.8,28.8,0,0,0,2.63,4.15A5,5,0,0,1,259.24,152.11Z"></path><path class="cls-10" d="M255.61,146.47a1,1,0,0,1,.08.23l.18.68c.15.6.36,1.49.61,2.63.49,2.3,1.13,5.64,1.82,9.79.34,2.07.69,4.34,1,6.79.17,1.22.36,2.49.47,3.81s.15,2.68.17,4.07c.05,2.78,0,5.7-.09,8.72s-.21,6.15-.44,9.35c-.45,6.4-1.23,12.46-1.94,18S256,221,255.17,225.12s-1.82,7.39-2.49,9.64c-.34,1.12-.62,2-.81,2.58l-.23.66a.92.92,0,0,1-.09.23.49.49,0,0,1,0-.24l.18-.68c.17-.64.41-1.51.71-2.61.61-2.26,1.51-5.54,2.32-9.65s1.52-9.06,2.2-14.57,1.45-11.56,1.89-18c.23-3.19.36-6.31.45-9.33s.16-5.93.12-8.7c0-1.38-.06-2.73-.15-4s-.28-2.57-.44-3.79q-.48-3.67-1-6.8c-.63-4.14-1.22-7.49-1.65-9.8-.22-1.11-.39-2-.51-2.65l-.13-.69A.78.78,0,0,1,255.61,146.47Z"></path><path class="cls-21" d="M187.25,251.91a16.79,16.79,0,0,1,.24,4c-.21,1.4-2.57,6.35-2.57,6.35s-1.33.09-1-3.22a27.38,27.38,0,0,1,.84-4.74Z"></path><path class="cls-22" d="M166.11,277.38S165.58,257,170,254.15s10.72-5.21,12.9-2.45a36.1,36.1,0,0,1,6,11.74,77.61,77.61,0,0,1,1.95,12.1l-5.44.13s-2.44-20-4.47-22.77-9.95.75-10.37,4.44-.24,19.93-.24,19.93Z"></path><path class="cls-22" d="M151.28,308.19c-.87-8.31-2.54-26.67-3.27-34.74a4.12,4.12,0,0,1,3.56-4.45l49.26-6.36a4.12,4.12,0,0,1,4.59,3.41L211,299.91a4.12,4.12,0,0,1-3.41,4.73h-.08l-51.55,7.18a4.09,4.09,0,0,1-4.64-3.47C151.29,308.3,151.29,308.25,151.28,308.19Z"></path><path class="cls-21" d="M183.12,261.21l4.14-9.14L187.07,241l-12.29-1.47-4.53,10.2s-.39,5.5,0,6.75,2.28,1.24,2.28,1.24c.28,1.71,2.83,2.21,2.83,2.21.57,1.86,2.91,1.33,2.91,1.33s.95,2.1,1.71,2.32a1.52,1.52,0,0,0,1-.16A4.26,4.26,0,0,0,183.12,261.21Z"></path><path class="cls-23" d="M172.69,255c.12,0,.17.61.12,1.35s-.2,1.33-.33,1.32-.17-.62-.12-1.35S172.57,254.94,172.69,255Z"></path><path class="cls-23" d="M175.69,256.06a6.39,6.39,0,0,1-.14,2,7.1,7.1,0,0,1-.31,1.95,5.58,5.58,0,0,1,.45-3.91Z"></path><path class="cls-23" d="M178.89,257.78c.12.05-.09.79-.29,1.71s-.33,1.67-.46,1.67a2.82,2.82,0,0,1,0-1.77C178.37,258.43,178.78,257.73,178.89,257.78Z"></path><path class="cls-23" d="M185.9,254.91a16.77,16.77,0,0,1-1.34,3.58,16.45,16.45,0,0,1-1.74,3.39,31.64,31.64,0,0,1,3.08-7Z"></path><path class="cls-23" d="M173.32,253c0,.06-.11.16-.37.19A1.29,1.29,0,0,1,172,253a1.35,1.35,0,0,1-.55-.81c-.06-.25,0-.4.05-.41a3.92,3.92,0,0,0,.76.86C172.75,253,173.29,252.9,173.32,253Z"></path><path class="cls-23" d="M176.49,255c0,.06-.14.14-.41.16a1.69,1.69,0,0,1-1-.31,1.63,1.63,0,0,1-.65-.83c-.09-.26-.06-.43,0-.44a5.49,5.49,0,0,0,.9.9C175.9,254.89,176.48,254.91,176.49,255Z"></path><path class="cls-23" d="M183.31,257.13c.06,0,.16.36-.28.64a2,2,0,0,1-1.66.08,2.55,2.55,0,0,1-1.33-1c-.24-.35-.27-.62-.22-.64a5,5,0,0,0,1.69,1.19,2.32,2.32,0,0,0,1.38.06C183.2,257.38,183.25,257.13,183.31,257.13Z"></path><path class="cls-10" d="M207.27,299.51a.83.83,0,0,0-.08-.28,7.25,7.25,0,0,1-.18-.86l-.66-3.29c-.56-2.9-1.35-7-2.33-12.13-.49-2.56-1-5.36-1.58-8.37-.29-1.51-.58-3.07-.88-4.67-.08-.4-.15-.81-.23-1.21l-.12-.6a.91.91,0,0,0-.23-.46,1,1,0,0,0-.93-.35l-1.27.17-22.24,2.89-22.24,2.86a4.12,4.12,0,0,0-1.16.23,1.06,1.06,0,0,0-.53.85c0,.77.11,1.64.16,2.44.12,1.63.23,3.21.34,4.74q.31,4.59.59,8.51c.35,5.17.63,9.37.83,12.32.09,1.42.15,2.54.2,3.35v.87a1.5,1.5,0,0,1,0,.3,1.5,1.5,0,0,1,0-.3l-.09-.86c-.08-.81-.17-1.93-.3-3.35-.24-2.94-.58-7.14-1-12.31-.21-2.6-.43-5.44-.66-8.5-.12-1.53-.24-3.11-.37-4.73-.05-.83-.14-1.61-.17-2.52a1.56,1.56,0,0,1,.76-1.22,1.85,1.85,0,0,1,.69-.21l.64-.08,22.25-2.9L198.69,267l1.27-.16a1.54,1.54,0,0,1,1.68,1.17l.12.62c.07.41.14.81.22,1.21.29,1.61.58,3.17.85,4.68.55,3,1.06,5.82,1.52,8.39.91,5.1,1.65,9.25,2.17,12.15.24,1.41.43,2.52.56,3.31.06.36.1.64.14.87A1.6,1.6,0,0,1,207.27,299.51Z"></path><rect class="cls-10" x="171.68" y="275.4" width="12.72" height="3.22" rx="0.52" transform="translate(-32.52 23.84) rotate(-7.02)"></rect><path class="cls-3" d="M228,171.58l-29.79,29.61-8,41.71-18-2.15,6.6-41a41.08,41.08,0,0,1,7.53-17.91l22.33-30.26a17,17,0,0,1,13.1-7.35,12.15,12.15,0,0,1,8.33,3.18c4.5,4.85,4.12,11.26,4,13.21"></path><path class="cls-10" d="M234.09,160.58a15.23,15.23,0,0,0,.13-2.44,17.88,17.88,0,0,0-1.4-6.84,14.08,14.08,0,0,0-2.81-4.23,11.86,11.86,0,0,0-5.32-2.69,13.36,13.36,0,0,0-6.9.36,17.2,17.2,0,0,0-6.72,3.89,20.26,20.26,0,0,0-2.74,3.18l-2.6,3.5-5.51,7.43-12.15,16.38c-1.06,1.45-2.18,2.88-3.2,4.43a41.67,41.67,0,0,0-6.21,15.91c-1.24,7.72-2.53,15.71-3.85,23.89-.94,5.89-1.87,11.68-2.78,17.32v.27h.27l18,2.14h.24v-.23c3-15.65,5.7-29.81,8-41.72l-.06.11,21.6-21.66,5.91-6,1.53-1.55c.34-.36.5-.55.5-.55s-.19.16-.54.5l-1.57,1.6-6,5.87L198.09,201h0v.07c-2.31,11.9-5,26-8.09,41.69l.28-.2-18-2.16.23.3c.91-5.65,1.84-11.44,2.79-17.32,1.31-8.19,2.59-16.18,3.83-23.9a41.33,41.33,0,0,1,3.41-10.88,40.85,40.85,0,0,1,2.71-4.83c1-1.53,2.11-3,3.17-4.42,4.27-5.78,8.32-11.27,12.11-16.42l5.49-7.44,2.59-3.51a21,21,0,0,1,2.67-3.14,16.89,16.89,0,0,1,6.57-3.83,12.87,12.87,0,0,1,6.74-.4,11.45,11.45,0,0,1,5.25,2.62,13.92,13.92,0,0,1,2.8,4.12,18,18,0,0,1,1.48,6.77V160A5.19,5.19,0,0,1,234.09,160.58Z"></path></g></g></g></svg>